# xmcd
#
# Track frame offsets:
#	150
#	24046
#	45047
#	64785
#	84518
#	104949
#	125008
#	134480
#	152957
#	182370
#	200501
#
# Disc length: 2860 seconds
#
# Revision: 1
# Processed by: cddbd v1.5.2PL0 Copyright (c) Steve Scherf et al.
# Submitted via: audiograbber 1.83.01
#
DISCID=8f0b2a0b
DTITLE=An American Starlet - Sweet Country Lullabies From An American Starlet
DYEAR=2001
DGENRE=Alt. Country
TTITLE0=Sweet Country Lullaby
TTITLE1=Wait
TTITLE2=Simple Sad Song
TTITLE3=Know It Was Better
TTITLE4=Men Of The Sea
TTITLE5=She´s A Star
TTITLE6=Love With You
TTITLE7=Why Are You Alone Tonight
TTITLE8=Softly Tomorrow
TTITLE9=Walzing To 12
TTITLE10=Plain Field Station
EXTD=
EXTT0=
EXTT1=
EXTT2=
EXTT3=
EXTT4=
EXTT5=
EXTT6=
EXTT7=
EXTT8=
EXTT9=
EXTT10=
PLAYORDER=
